%TF.GenerationSoftware,KiCad,Pcbnew,9.0.2*%
%TF.CreationDate,2025-07-01T17:26:35-07:00*%
%TF.ProjectId,Blinky,426c696e-6b79-42e6-9b69-6361645f7063,rev?*%
%TF.SameCoordinates,Original*%
%TF.FileFunction,Legend,Top*%
%TF.FilePolarity,Positive*%
%FSLAX46Y46*%
G04 Gerber Fmt 4.6, Leading zero omitted, Abs format (unit mm)*
G04 Created by KiCad (PCBNEW 9.0.2) date 2025-07-01 17:26:35*
%MOMM*%
%LPD*%
G01*
G04 APERTURE LIST*
%ADD10C,0.100000*%
%ADD11C,0.150000*%
%ADD12C,0.120000*%
G04 APERTURE END LIST*
D10*
X122637440Y-102242624D02*
X146800000Y-102100000D01*
X138816217Y-89300000D02*
G75*
G02*
X130783783Y-89300000I-4016217J0D01*
G01*
X130783783Y-89300000D02*
G75*
G02*
X138816217Y-89300000I4016217J0D01*
G01*
X146800000Y-102100000D02*
G75*
G02*
X122637438Y-102242624I-12100000J3100000D01*
G01*
X127300000Y-76900000D02*
G75*
G02*
X118013876Y-76900000I-4643062J0D01*
G01*
X118013876Y-76900000D02*
G75*
G02*
X127300000Y-76900000I4643062J0D01*
G01*
X149838062Y-76700000D02*
G75*
G02*
X140551938Y-76700000I-4643062J0D01*
G01*
X140551938Y-76700000D02*
G75*
G02*
X149838062Y-76700000I4643062J0D01*
G01*
D11*
X122261905Y-73554819D02*
X122261905Y-72554819D01*
X122261905Y-72554819D02*
X122500000Y-72554819D01*
X122500000Y-72554819D02*
X122642857Y-72602438D01*
X122642857Y-72602438D02*
X122738095Y-72697676D01*
X122738095Y-72697676D02*
X122785714Y-72792914D01*
X122785714Y-72792914D02*
X122833333Y-72983390D01*
X122833333Y-72983390D02*
X122833333Y-73126247D01*
X122833333Y-73126247D02*
X122785714Y-73316723D01*
X122785714Y-73316723D02*
X122738095Y-73411961D01*
X122738095Y-73411961D02*
X122642857Y-73507200D01*
X122642857Y-73507200D02*
X122500000Y-73554819D01*
X122500000Y-73554819D02*
X122261905Y-73554819D01*
X123785714Y-73554819D02*
X123214286Y-73554819D01*
X123500000Y-73554819D02*
X123500000Y-72554819D01*
X123500000Y-72554819D02*
X123404762Y-72697676D01*
X123404762Y-72697676D02*
X123309524Y-72792914D01*
X123309524Y-72792914D02*
X123214286Y-72840533D01*
X144456905Y-73194819D02*
X144456905Y-72194819D01*
X144456905Y-72194819D02*
X144695000Y-72194819D01*
X144695000Y-72194819D02*
X144837857Y-72242438D01*
X144837857Y-72242438D02*
X144933095Y-72337676D01*
X144933095Y-72337676D02*
X144980714Y-72432914D01*
X144980714Y-72432914D02*
X145028333Y-72623390D01*
X145028333Y-72623390D02*
X145028333Y-72766247D01*
X145028333Y-72766247D02*
X144980714Y-72956723D01*
X144980714Y-72956723D02*
X144933095Y-73051961D01*
X144933095Y-73051961D02*
X144837857Y-73147200D01*
X144837857Y-73147200D02*
X144695000Y-73194819D01*
X144695000Y-73194819D02*
X144456905Y-73194819D01*
X145409286Y-72290057D02*
X145456905Y-72242438D01*
X145456905Y-72242438D02*
X145552143Y-72194819D01*
X145552143Y-72194819D02*
X145790238Y-72194819D01*
X145790238Y-72194819D02*
X145885476Y-72242438D01*
X145885476Y-72242438D02*
X145933095Y-72290057D01*
X145933095Y-72290057D02*
X145980714Y-72385295D01*
X145980714Y-72385295D02*
X145980714Y-72480533D01*
X145980714Y-72480533D02*
X145933095Y-72623390D01*
X145933095Y-72623390D02*
X145361667Y-73194819D01*
X145361667Y-73194819D02*
X145980714Y-73194819D01*
X133166667Y-101757200D02*
X133309524Y-101804819D01*
X133309524Y-101804819D02*
X133547619Y-101804819D01*
X133547619Y-101804819D02*
X133642857Y-101757200D01*
X133642857Y-101757200D02*
X133690476Y-101709580D01*
X133690476Y-101709580D02*
X133738095Y-101614342D01*
X133738095Y-101614342D02*
X133738095Y-101519104D01*
X133738095Y-101519104D02*
X133690476Y-101423866D01*
X133690476Y-101423866D02*
X133642857Y-101376247D01*
X133642857Y-101376247D02*
X133547619Y-101328628D01*
X133547619Y-101328628D02*
X133357143Y-101281009D01*
X133357143Y-101281009D02*
X133261905Y-101233390D01*
X133261905Y-101233390D02*
X133214286Y-101185771D01*
X133214286Y-101185771D02*
X133166667Y-101090533D01*
X133166667Y-101090533D02*
X133166667Y-100995295D01*
X133166667Y-100995295D02*
X133214286Y-100900057D01*
X133214286Y-100900057D02*
X133261905Y-100852438D01*
X133261905Y-100852438D02*
X133357143Y-100804819D01*
X133357143Y-100804819D02*
X133595238Y-100804819D01*
X133595238Y-100804819D02*
X133738095Y-100852438D01*
X134071429Y-100804819D02*
X134309524Y-101804819D01*
X134309524Y-101804819D02*
X134500000Y-101090533D01*
X134500000Y-101090533D02*
X134690476Y-101804819D01*
X134690476Y-101804819D02*
X134928572Y-100804819D01*
X135833333Y-101804819D02*
X135261905Y-101804819D01*
X135547619Y-101804819D02*
X135547619Y-100804819D01*
X135547619Y-100804819D02*
X135452381Y-100947676D01*
X135452381Y-100947676D02*
X135357143Y-101042914D01*
X135357143Y-101042914D02*
X135261905Y-101090533D01*
X131499819Y-74109523D02*
X130499819Y-74109523D01*
X130499819Y-74109523D02*
X131214104Y-73776190D01*
X131214104Y-73776190D02*
X130499819Y-73442857D01*
X130499819Y-73442857D02*
X131499819Y-73442857D01*
X131499819Y-72442857D02*
X131499819Y-73014285D01*
X131499819Y-72728571D02*
X130499819Y-72728571D01*
X130499819Y-72728571D02*
X130642676Y-72823809D01*
X130642676Y-72823809D02*
X130737914Y-72919047D01*
X130737914Y-72919047D02*
X130785533Y-73014285D01*
D12*
%TO.C,D1*%
X125170000Y-76700000D02*
G75*
G02*
X120170000Y-76700000I-2500000J0D01*
G01*
X120170000Y-76700000D02*
G75*
G02*
X125170000Y-76700000I2500000J0D01*
G01*
X125660000Y-76700000D02*
G75*
G02*
X120110000Y-78244830I-2990000J0D01*
G01*
X120110000Y-75155170D02*
G75*
G02*
X125660000Y-76700000I2560000J-1544830D01*
G01*
X120110000Y-75155000D02*
X120110000Y-78245000D01*
%TO.C,D2*%
X147695000Y-76700000D02*
G75*
G02*
X142695000Y-76700000I-2500000J0D01*
G01*
X142695000Y-76700000D02*
G75*
G02*
X147695000Y-76700000I2500000J0D01*
G01*
X148185000Y-76700000D02*
G75*
G02*
X142635000Y-78244830I-2990000J0D01*
G01*
X142635000Y-75155170D02*
G75*
G02*
X148185000Y-76700000I2560000J-1544830D01*
G01*
X142635000Y-75155000D02*
X142635000Y-78245000D01*
%TO.C,SW1*%
X131000000Y-104850000D02*
X131000000Y-106350000D01*
X132250000Y-108850000D02*
X136750000Y-108850000D01*
X136750000Y-102350000D02*
X132250000Y-102350000D01*
X138000000Y-106350000D02*
X138000000Y-104850000D01*
%TO.C,M1*%
X134695000Y-71920000D02*
X137345000Y-71920000D01*
X137345000Y-74680000D02*
X137345000Y-71920000D01*
X134695000Y-74680000D02*
X134695000Y-71920000D01*
X134695000Y-74680000D02*
X137345000Y-74680000D01*
X133425000Y-74680000D02*
X132045000Y-74680000D01*
X132045000Y-74680000D02*
X132045000Y-73300000D01*
%TD*%
M02*
